# xmcd
#
# Track frame offsets:
#	150
#	17205
#	36662
#	53985
#	76340
#	93495
#	119337
#	143025
#	167620
#	191457
#
# Disc length: 2786 seconds
# Revision: 0
# Processed by: cddbd v1.5.2PL0 Copyright (c) Steve Scherf et al.
# Submitted via: dBpowerAMP V12.0
#
DISCID=840ae00a
DTITLE=Sista Jean and CB - Back To The Root
DYEAR=2012
DGENRE=Blues
TTITLE0=Back It Up Train
TTITLE1=Roll Me Over
TTITLE2=Don't Want What U Got
TTITLE3=Wine Me, Dine Me
TTITLE4=Love Is Callin'
TTITLE5=Speak To Me Lord
TTITLE6=Free My Heart
TTITLE7=U Best Know Henry
TTITLE8=Perfect Day For A Rescue
TTITLE9=You Can Dance To The Bluez
EXTD=
EXTT0=
EXTT1=
EXTT2=
EXTT3=
EXTT4=
EXTT5=
EXTT6=
EXTT7=
EXTT8=
EXTT9=
PLAYORDER=
